# xmcd CD database file
#
# Track frame offsets:
#	150
#	21570
#	38512
#	57457
#	79595
#	96267
#	119055
#	123397
#	142237
#	157787
#	176807
#	193612
#	208842
#
# Disc length: 2969 seconds
#
# Revision: 0
# Processed by: cddbd v1.5.2PL0 Copyright (c) Steve Scherf et al.
# Submitted via: CDex 1.70beta2
#
DISCID=be0b970d
DTITLE=Edvaldo Santana - Lobo Solitario
DYEAR=1900
DGENRE=Blues
TTITLE0=Lobo Solitario
TTITLE1=Consulta
TTITLE2=Muito Prazer
TTITLE3=Metro Linha 743
TTITLE4=Bica na Boca
TTITLE5=]Maos ao Alto - Jimi Renda-se - Fregues Distinto
TTITLE6=The bluesman
TTITLE7=A Russia Pegou Fogo na Sapucai
TTITLE8=O Tonto e o Zorro
TTITLE9=Novelo
TTITLE10=Sabonete
TTITLE11=Torto
TTITLE12=Samba do Japa
EXTD=
EXTT0=
EXTT1=
EXTT2=
EXTT3=
EXTT4=
EXTT5=
EXTT6=
EXTT7=
EXTT8=
EXTT9=
EXTT10=
EXTT11=
EXTT12=
PLAYORDER=
